<svg id="Capa_1" enable-background="new 0 0 512 512" height="512" viewBox="0 0 512 512" width="512" xmlns="http://www.w3.org/2000/svg"><g><path d="m134.47 244h243.06l32.56-56.39-36.68-28.56c.335-5.045.335-10.055 0-15.1l36.68-28.56-45.78-79.28-43.06 17.48c-4.19-2.8-8.56-5.33-13.08-7.57l-6.39-46.02h-91.56l-6.39 46.02c-4.52 2.24-8.89 4.77-13.08 7.57l-43.06-17.48-45.78 79.28 36.68 28.56c-.335 5.045-.335 10.055 0 15.1l-36.68 28.56zm121.53-58.66c-18.69 0-33.84-15.15-33.84-33.84 1.782-44.888 65.905-44.876 67.68 0 0 18.69-15.15 33.84-33.84 33.84z"/><path d="m80.41 342.35v169.65h228.22v-207.39l-27.83 37.74zm99.4 140.07-23.35-18.84 12.17-15.08h-42.87v-30h42.87l-12.17-15.08 23.35-18.84 39.46 48.92z"/><path d="m338.63 304.6v207.4h92.96v-169.65h-65.12z"/><path d="m265.65 312.35c9.014-12.243 19.279-26.126 28.28-38.35-53.104 0-159.27 0-213.35 0l-28.29 38.35z"/><path d="m431.42 274h-78.09c7.057 9.56 21.246 28.794 28.29 38.35h78.09z"/></g></svg>